<svg xmlns="http://www.w3.org/2000/svg" viewBox="0 0 160 100"><path d="M8 99c-3.8 0-7-3.2-7-7V8c0-3.8 3.2-7 7-7h144c3.8 0 7 3.2 7 7v84c0 3.8-3.2 7-7 7H8z" fill-rule="evenodd" clip-rule="evenodd" fill="#fff"/><path d="M152 2c3.3 0 6 2.7 6 6v84c0 3.3-2.7 6-6 6H8c-3.3 0-6-2.7-6-6V8c0-3.3 2.7-6 6-6h144zm0-2H8C3.6 0 0 3.6 0 8v84c0 4.4 3.6 8 8 8h144c4.4 0 8-3.6 8-8V8c0-4.4-3.6-8-8-8z" fill="#e6e6e6"/><path d="M116.3 64.6c1.9.1 3.7.3 5.6.5v-33h-5.6v32.5zM25.9 52.4l-7.3-20.3h-5.3V68c1.9-.3 3.7-.5 5.6-.8V47.7l6.5 18.7c2-.2 4.1-.5 6.2-.7V32.1H26v20.3zM37 65.2c5.2-.5 10.4-.9 15.6-1.2v-5.5c-3.3.2-6.7.4-10 .7v-8.4c2.2 0 5-.1 7.6-.1v-5.5c-2 0-5.3 0-7.6.1v-7.6h10v-5.6H37v33.1zm19.2-27.5h5.9v25.9c1.9-.1 3.7-.1 5.6-.2V37.7h5.9v-5.6H56.2v5.6zm21 25.5h5.6V50.4h7.6v-5.5h-7.6v-7.2h10.1v-5.6H77.2v31.1zm69.5-31.1h-6.2l-4.1 9.4-3.7-9.4h-6.1l6.5 16.9-7.1 16.5c2 .2 3.9.4 5.9.6l4.1-9.6 4.1 10.6c2.1.3 4.3.6 6.4.9l-7.1-19 7.3-16.9zm-44.6 0h-5.6v31.4c5.1.2 10.2.4 15.3.8v-5.5c-3.2-.2-6.4-.4-9.6-.5V32.1z" fill="#e50914"/></svg>